<svg width="800" height="800" viewBox="0 0 800 800" fill="none" xmlns="http://www.w3.org/2000/svg">
<path d="M800 800H0V0H800V800ZM287.331 240.546C287.35 233.858 285.986 227.239 283.324 221.104C280.662 214.969 276.76 209.451 271.864 204.896C266.967 200.341 261.182 196.848 254.87 194.636C248.559 192.424 241.859 191.541 235.19 192.042C228.568 191.537 221.913 192.394 215.635 194.56C209.357 196.727 203.59 200.157 198.689 204.639C193.788 209.121 189.858 214.56 187.141 220.62C184.423 226.68 182.977 233.232 182.89 239.873C182.804 246.514 184.079 253.102 186.638 259.23C189.196 265.359 192.984 270.898 197.766 275.506C202.549 280.114 208.225 283.693 214.444 286.023C220.663 288.352 227.294 289.382 233.927 289.049H234.584C241.296 289.615 248.053 288.782 254.426 286.602C260.8 284.421 266.651 280.941 271.609 276.381C276.568 271.822 280.526 266.282 283.232 260.114C285.938 253.945 287.334 247.282 287.331 240.546ZM281.117 327.397H187.95V607.907H281.167L281.117 327.397ZM617.507 447.038C617.507 360.894 571.53 320.728 510.143 320.728C493.241 320.035 476.473 323.988 461.66 332.156C446.847 340.324 434.555 352.395 426.121 367.058V327.346H332.803C334.066 353.619 332.803 607.958 332.803 607.958H426.172V451.232C425.802 443.532 426.829 435.829 429.203 428.496C432.686 418.576 439.146 409.973 447.7 403.86C456.254 397.748 466.486 394.423 476.999 394.341C510.85 394.341 524.29 420.109 524.29 457.8V608.008H617.557L617.507 447.038ZM425.515 368.018L426.121 367.058L426.172 368.018H425.515Z" fill="#0077B5"/>
</svg>
