<svg width="1000" height="114" viewBox="0 0 1000 114" fill="none" xmlns="http://www.w3.org/2000/svg">
<g clip-path="url(#clip0_1142_25)">
<path d="M108.411 110.864C104.953 114.314 99.2524 114.388 95.7366 110.864L75.0364 90.1633L75.1761 104.53C75.3075 110.157 71.3646 113.41 66.436 113.41C61.3677 113.41 57.4248 109.451 57.4248 104.53V86.6312C57.4248 82.6965 59.8234 79.5586 63.0434 78.3018C68.9906 75.9771 73.6071 71.3689 75.8496 65.4956C77.0654 62.3166 80.2443 59.877 84.179 59.877H102.086C107.007 59.877 110.958 63.8199 110.958 68.8881C110.958 73.8167 107.705 77.7678 102.086 77.62L87.7112 77.4885L108.411 98.1887C111.935 101.704 111.87 107.405 108.411 110.864Z" fill="#008B55"/>
<path d="M108.414 5.06696C111.864 8.52521 111.938 14.226 108.414 17.7417L87.7141 38.442L102.081 38.3104C107.708 38.1709 110.953 42.1137 110.953 47.0505C110.953 52.1188 107.001 56.0535 102.081 56.0535L84.1819 56.0615C80.2473 56.0535 77.1012 53.6547 75.8444 50.4346C73.5279 44.4874 68.9114 39.8792 63.0464 37.6284C59.8674 36.4127 57.4277 33.2337 57.4277 29.299V11.3999C57.4277 6.4795 61.3624 2.52018 66.4389 2.52018C71.3675 2.52018 75.3104 5.77307 75.1708 11.3999L75.0393 25.7751L95.7396 5.06663C99.2553 1.54267 104.956 1.60871 108.414 5.06696Z" fill="#008B55"/>
<path d="M2.6184 5.06663C6.06844 1.60838 11.7774 1.54267 15.2932 5.06663L35.9934 25.7751L35.862 11.3999C35.7223 5.77307 39.6652 2.52018 44.5938 2.52018C49.6621 2.52018 53.605 6.4795 53.605 11.3999V29.299C53.605 33.2337 51.2064 36.3798 47.9864 37.6284C42.0392 39.9531 37.4227 44.5696 35.1802 50.4346C33.9644 53.6136 30.7855 56.0533 26.8508 56.0533H8.95167C4.03126 56.0533 0.0719397 52.1186 0.0719397 47.0503C0.0719397 42.1134 3.32482 38.1706 8.95167 38.3102L23.3268 38.4417L2.61839 17.7415C-0.905576 14.2258 -0.839852 8.51667 2.6184 5.06663Z" fill="#008B55"/>
<path d="M2.61825 110.863C-0.831782 107.413 -0.905712 101.704 2.61825 98.1887L23.3267 77.4885L8.95153 77.62C3.32468 77.7678 0.0717939 73.8167 0.0717939 68.8881C0.0717939 63.8199 4.03112 59.877 8.95153 59.877H26.8506C30.7853 59.877 33.9314 62.2838 35.1882 65.4956C37.5047 71.4428 42.1212 76.0593 47.9862 78.3018C51.1652 79.5175 53.6049 82.6965 53.6049 86.6312V104.53C53.6049 109.451 49.662 113.41 44.5937 113.41C39.6651 113.41 35.7222 110.157 35.8618 104.53L35.9932 90.1634L15.293 110.864C11.7773 114.388 6.06829 114.322 2.61825 110.863Z" fill="#008B55"/>
<path d="M186.295 110.88C150.883 110.88 139.481 87.321 139.481 62.1193C139.481 30.0093 156.288 7.50195 190.197 7.50195C197.393 7.50195 205.049 8.40553 211.653 10.2045L209.55 27.9064C202.946 25.9596 196.046 24.9082 189.146 24.9082C170.236 24.9082 160.937 39.1601 160.937 58.8089C160.937 80.8727 170.096 93.1778 190.493 93.1778C196.645 93.1778 204.901 91.3789 210.15 88.9803L212.4 106.378C204.901 109.081 195.75 110.88 186.295 110.88Z" fill="#008B55"/>
<path d="M238.663 28.748C232.322 28.748 227.278 23.7043 227.278 17.5107C227.278 11.4485 232.322 6.41309 238.663 6.41309C245.005 6.41309 250.196 11.3089 250.196 17.5107C250.196 23.7043 245.005 28.748 238.663 28.748ZM229.053 34.9662H248.25V109.536H229.053V34.9662Z" fill="#008B55"/>
<path d="M296.223 111.034C279.721 111.034 274.611 105.021 274.611 87.623V49.8123H261.715V34.9607H274.472V12.0015L293.669 6.90039V34.9607H311.831V49.8123H293.669V82.5301C293.669 92.1245 295.928 94.827 302.524 94.827C305.67 94.827 309.12 94.3752 311.831 93.6277V109.079C307.025 110.286 301.472 111.034 296.223 111.034Z" fill="#008B55"/>
<path d="M339.234 28.748C332.884 28.748 327.849 23.7043 327.849 17.5107C327.849 11.4485 332.884 6.41309 339.234 6.41309C345.583 6.41309 350.767 11.3089 350.767 17.5107C350.767 23.7043 345.583 28.748 339.234 28.748ZM329.631 34.9662H348.836V109.536H329.631V34.9662Z" fill="#008B55"/>
<path d="M365.932 109.53V95.8778L395.947 51.7584C393.097 51.9227 387.248 52.0705 380.036 52.0705H366.843V34.96H419.046V48.6123L389.647 92.1238C392.793 91.976 401.04 91.976 406.601 91.976H419.654V109.53L365.932 109.53Z" fill="#008B55"/>
<path d="M497.525 75.3212H451.311C451.163 89.2774 458.063 96.0296 471.855 96.0296C479.223 96.0296 487.167 94.3785 493.623 91.3721L495.422 106.232C487.462 109.378 478.016 111.037 468.717 111.037C445.01 111.037 431.802 99.1757 431.802 72.9226C431.802 50.1113 444.411 33.3047 466.762 33.3047C488.514 33.3047 498.125 48.1645 498.125 66.614C498.125 69.1686 497.968 72.1669 497.525 75.3212ZM466.162 47.4088C458.211 47.4088 452.658 53.2574 451.607 62.2686H479.067C479.363 52.9617 474.27 47.4088 466.162 47.4088Z" fill="#008B55"/>
<path d="M559.939 109.53V61.8125C559.939 54.0171 557.836 49.3677 550.78 49.3677C541.038 49.3677 533.382 60.4654 533.382 73.5262V109.53H514.177V34.9597H532.331C532.331 38.4097 532.035 44.2584 531.279 48.1684L531.419 48.3163C535.937 39.4612 544.636 33.3086 556.776 33.3086C573.591 33.3086 578.996 44.1105 578.996 57.1631V109.53H559.939Z" fill="#008B55"/>
<path d="M612.75 111.034C607.353 111.034 601.956 110.434 597.159 109.679L597.602 93.9316C602.252 95.1227 607.953 96.1823 613.653 96.1823C621.005 96.1823 625.819 93.1759 625.819 88.2309C625.819 75.0222 595.647 82.5301 595.647 57.1641C595.647 44.1115 606.31 33.3096 627.306 33.3096C631.659 33.3096 636.465 33.9092 640.958 34.6567L640.358 49.8122C636.161 48.613 631.207 47.8654 626.558 47.8654C619.05 47.8654 615.452 50.8637 615.452 55.5212C615.452 67.6703 646.059 62.2652 646.059 86.4237C646.059 101.127 633.154 111.034 612.75 111.034Z" fill="#008B55"/>
<path d="M716.571 109.828C710.426 109.828 699.772 109.532 687.023 109.532V8.40515C695.575 7.94514 708.767 7.64941 721.228 7.64941C743.136 7.64941 755.285 16.5045 755.285 32.7033C755.285 42.7577 748.837 51.6128 739.234 55.3585V55.6624C751.235 58.2089 757.24 68.1236 757.24 78.3177C757.24 93.0214 747.186 109.828 716.571 109.828ZM717.934 23.4046C713.876 23.4046 709.974 23.5524 706.524 23.7085V50.1177C708.923 50.2656 711.322 50.2655 714.484 50.2655C727.824 50.2655 734.733 44.8605 734.733 35.8576C734.733 28.3496 730.223 23.4046 717.934 23.4046ZM715.076 64.8214C713.581 64.8214 708.619 64.8214 706.524 64.9693V93.3252C708.923 93.621 712.669 93.9249 717.178 93.9249C729.927 93.9249 736.384 87.9202 736.384 78.7694C736.384 68.8629 727.824 64.8214 715.076 64.8214Z" fill="#008B55"/>
<path d="M812.298 109.53C812.298 105.176 812.454 100.831 813.054 96.9289L812.898 96.7811C809.292 105.176 800.149 111.033 789.043 111.033C775.547 111.033 767.735 103.377 767.735 91.376C767.735 73.5261 785.437 64.0632 810.803 64.0632V60.0135C810.803 52.2181 807.049 48.1684 796.247 48.1684C789.495 48.1684 780.492 50.4109 774.2 54.017L772.541 37.9579C780.04 35.2554 789.635 33.3086 799.246 33.3086C823.248 33.3086 830.009 43.0591 830.009 59.266V90.3246C830.009 96.3293 830.148 103.377 830.452 109.53L812.298 109.53ZM810.803 76.5244C790.547 76.5244 786.037 82.373 786.037 88.3695C786.037 93.1749 789.347 96.3292 794.9 96.3292C804.355 96.3292 810.803 87.3263 810.803 78.3233V76.5244Z" fill="#008B55"/>
<path d="M895.272 109.53V61.8125C895.272 54.0171 893.17 49.3677 886.113 49.3677C876.363 49.3677 868.715 60.4654 868.715 73.5262V109.53H849.502V34.9597H867.664C867.664 38.4097 867.368 44.2584 866.613 48.1684L866.769 48.3163C871.27 39.4612 879.969 33.3086 892.11 33.3086C908.925 33.3086 914.33 44.1105 914.33 57.1631V109.53H895.272Z" fill="#008B55"/>
<path d="M975.99 109.53L952.883 72.6231V109.53H933.678V-0.000155552H952.883V66.0187L974.643 34.9602H998.054L971.94 69.017L1000 109.53H975.99Z" fill="#008B55"/>
</g>
<defs>
<clipPath id="clip0_1142_25">
<rect width="1000" height="113.482" fill="white"/>
</clipPath>
</defs>
</svg>
